# xmcd
#
# Track frame offsets:
#	150
#	17406
#	35583
#	48452
#	67072
#	88385
#	102632
#	114065
#	129828
#	141363
#	158521
#	169621
#	190076
#	209387
#	228518
#	246861
#	262076
#	275437
#	291747
#	305833
#	321477
#	339999
#
# Disc length: 4768 seconds
#
# Revision: 1
# Processed by: cddbd v1.5.2PL0 Copyright (c) Steve Scherf et al.
# Submitted via: EasyCDDAExtractor 6.0.0.1
#
DISCID=50129e16
DTITLE=Mireille Mathieu - Collection
DYEAR=1900
DGENRE=Chanson
TTITLE0=Aimez Moi
TTITLE1=Aprends Moi
TTITLE2=Celui que j'aime
TTITLE3=Apres Toi
TTITLE4=Bravo tu es gagné
TTITLE5=En noir et blanc
TTITLE6=Il Est Tard
TTITLE7=L'enfant que je n'ai jamais eu
TTITLE8=La Califfa
TTITLE9=Nos souvenir
TTITLE10=Ponts De Paris
TTITLE11=Les Trois Cloches
TTITLE12=La Mer
TTITLE13=On ne vit pas sansse direadieu
TTITLE14=Santa Maria
TTITLE15=Pardonne Moi Ce Caprice D'Enfa
TTITLE16=La terre promise
TTITLE17=La preicre etoile
TTITLE18=L'Amour Oublie le Temps
TTITLE19=Amour Defendu
TTITLE20=Une femme amoureuse
TTITLE21=Vai colomba blanca
EXTD=
EXTT0=
EXTT1=
EXTT2=
EXTT3=
EXTT4=
EXTT5=
EXTT6=
EXTT7=
EXTT8=
EXTT9=
EXTT10=
EXTT11=
EXTT12=
EXTT13=
EXTT14=
EXTT15=
EXTT16=
EXTT17=
EXTT18=
EXTT19=
EXTT20=
EXTT21=
PLAYORDER=
